<?xml version="1.0" encoding="UTF-8"?>
<svg id="Layer_1" data-name="Layer 1" xmlns="http://www.w3.org/2000/svg" xmlns:xlink="http://www.w3.org/1999/xlink" viewBox="0 0 769.73 555.43">
  <defs>
    <style>
      .cls-1 {
        fill: url(#linear-gradient-29);
        opacity: .3;
      }

      .cls-2, .cls-3 {
        fill: #fff;
      }

      .cls-4 {
        fill: url(#linear-gradient-17);
      }

      .cls-5 {
        fill: #125cae;
      }

      .cls-6 {
        fill: url(#linear-gradient-15);
      }

      .cls-3 {
        opacity: .4;
      }

      .cls-7 {
        fill: url(#linear-gradient-18);
      }

      .cls-8 {
        fill: url(#linear-gradient-14);
      }

      .cls-9 {
        fill: url(#linear-gradient-6);
      }

      .cls-10 {
        fill: url(#linear-gradient-28);
      }

      .cls-10, .cls-11 {
        opacity: .6;
      }

      .cls-12 {
        fill: url(#linear-gradient-20);
        opacity: .5;
      }

      .cls-13 {
        fill: url(#linear-gradient-11);
      }

      .cls-14 {
        fill: url(#linear-gradient-10);
      }

      .cls-15 {
        fill: url(#linear-gradient-16);
      }

      .cls-16 {
        fill: #b3efff;
      }

      .cls-17 {
        fill: url(#linear-gradient-21);
      }

      .cls-18 {
        fill: url(#linear-gradient-25);
      }

      .cls-11 {
        fill: url(#linear-gradient-5);
      }

      .cls-19 {
        fill: url(#linear-gradient-2);
        mix-blend-mode: multiply;
      }

      .cls-20 {
        fill: url(#linear-gradient-7);
      }

      .cls-21 {
        fill: url(#Degradado_sin_nombre_9);
      }

      .cls-22 {
        fill: url(#linear-gradient-24);
      }

      .cls-23 {
        fill: url(#linear-gradient-9);
      }

      .cls-24 {
        fill: url(#linear-gradient-22);
      }

      .cls-25 {
        filter: url(#luminosity-noclip);
      }

      .cls-26 {
        mask: url(#mask-1);
      }

      .cls-27 {
        mask: url(#mask);
      }

      .cls-28 {
        fill: url(#linear-gradient-3);
      }

      .cls-29 {
        fill: url(#linear-gradient);
      }

      .cls-30 {
        fill: url(#linear-gradient-27);
      }

      .cls-31 {
        fill: url(#linear-gradient-23);
      }

      .cls-32 {
        fill: url(#linear-gradient-19);
      }

      .cls-33 {
        fill: url(#linear-gradient-4);
      }

      .cls-34 {
        fill: url(#linear-gradient-8);
      }

      .cls-35 {
        fill: url(#linear-gradient-12);
      }

      .cls-36 {
        fill: url(#linear-gradient-13);
      }

      .cls-37 {
        fill: url(#linear-gradient-26);
      }
    </style>
    <linearGradient id="linear-gradient" x1="222.28" y1="4.76" x2="571.12" y2="505.27" gradientUnits="userSpaceOnUse">
      <stop offset="0" stop-color="#270036"/>
      <stop offset=".59" stop-color="#4f008b"/>
      <stop offset="1" stop-color="#4c24b1"/>
    </linearGradient>
    <radialGradient id="Degradado_sin_nombre_9" data-name="Degradado sin nombre 9" cx="451.47" cy="252.03" fx="451.47" fy="252.03" r="206.65" gradientUnits="userSpaceOnUse">
      <stop offset="0" stop-color="#3e82bf"/>
      <stop offset=".11" stop-color="#3e82bf" stop-opacity=".85"/>
      <stop offset=".34" stop-color="#3e82bf" stop-opacity=".55"/>
      <stop offset=".55" stop-color="#3e82bf" stop-opacity=".31"/>
      <stop offset=".74" stop-color="#3e82bf" stop-opacity=".14"/>
      <stop offset=".89" stop-color="#3e82bf" stop-opacity=".04"/>
      <stop offset="1" stop-color="#3e82bf" stop-opacity="0"/>
    </radialGradient>
    <filter id="luminosity-noclip" x="523.66" y="21.17" width="100.17" height="100.16" color-interpolation-filters="sRGB" filterUnits="userSpaceOnUse">
      <feFlood flood-color="#fff" result="bg"/>
      <feBlend in="SourceGraphic" in2="bg"/>
    </filter>
    <filter id="luminosity-noclip-2" x="523.66" y="-8465.67" width="100.17" height="32766" color-interpolation-filters="sRGB" filterUnits="userSpaceOnUse">
      <feFlood flood-color="#fff" result="bg"/>
      <feBlend in="SourceGraphic" in2="bg"/>
    </filter>
    <mask id="mask-1" x="523.66" y="-8465.67" width="100.17" height="32766" maskUnits="userSpaceOnUse"/>
    <linearGradient id="linear-gradient-2" x1="173.52" y1="299.12" x2="256.79" y2="354.81" gradientTransform="translate(495.23 -310.17) rotate(135.15) scale(1 -1)" gradientUnits="userSpaceOnUse">
      <stop offset="0" stop-color="#4d4d4d"/>
      <stop offset=".29" stop-color="#898989"/>
      <stop offset=".63" stop-color="#c8c8c8"/>
      <stop offset=".87" stop-color="#efefef"/>
      <stop offset="1" stop-color="#fff"/>
    </linearGradient>
    <mask id="mask" x="523.66" y="21.17" width="100.17" height="100.16" maskUnits="userSpaceOnUse">
      <g class="cls-25">
        <g class="cls-26">
          <path class="cls-19" d="m538.24,106.57c19.52,19.61,51.22,19.69,70.83.18,19.61-19.51,19.69-51.22.18-70.83-19.51-19.61-51.22-19.69-70.83-.18-19.61,19.5-19.69,51.22-.19,70.82Z"/>
        </g>
      </g>
    </mask>
    <linearGradient id="linear-gradient-3" x1="173.52" y1="299.12" x2="256.79" y2="354.81" gradientTransform="translate(495.23 -310.17) rotate(135.15) scale(1 -1)" gradientUnits="userSpaceOnUse">
      <stop offset="0" stop-color="#88cfda"/>
      <stop offset="0" stop-color="#89cfd9"/>
      <stop offset=".48" stop-color="#c8d8ba"/>
      <stop offset=".82" stop-color="#efdea7"/>
      <stop offset="1" stop-color="#ffe1a0"/>
    </linearGradient>
    <linearGradient id="linear-gradient-4" x1="244.18" y1="51.96" x2="269.3" y2="51.96" gradientUnits="userSpaceOnUse">
      <stop offset="0" stop-color="#7633ff"/>
      <stop offset=".16" stop-color="#7037ff"/>
      <stop offset=".35" stop-color="#6143ff"/>
      <stop offset=".57" stop-color="#4856ff"/>
      <stop offset=".79" stop-color="#2671ff"/>
      <stop offset="1" stop-color="#0090ff"/>
    </linearGradient>
    <linearGradient id="linear-gradient-5" x1="45.67" y1="178.58" x2="64.51" y2="178.58" xlink:href="#linear-gradient-4"/>
    <linearGradient id="linear-gradient-6" x1="678.25" y1="162.18" x2="298.99" y2="391.46" gradientUnits="userSpaceOnUse">
      <stop offset="0" stop-color="#1dacff"/>
      <stop offset=".14" stop-color="#1ca8fa"/>
      <stop offset=".27" stop-color="#1a9eee"/>
      <stop offset=".41" stop-color="#178dda"/>
      <stop offset=".55" stop-color="#1376bd"/>
      <stop offset=".7" stop-color="#0e5798"/>
      <stop offset=".84" stop-color="#08326b"/>
      <stop offset=".98" stop-color="#010736"/>
      <stop offset="1" stop-color="#00002e"/>
    </linearGradient>
    <linearGradient id="linear-gradient-7" x1="638.18" y1="164.99" x2="420.97" y2="296.01" xlink:href="#linear-gradient-6"/>
    <linearGradient id="linear-gradient-8" x1="0" y1="485.11" x2="203.73" y2="485.11" gradientUnits="userSpaceOnUse">
      <stop offset="0" stop-color="#88aeda"/>
      <stop offset=".04" stop-color="#8dadd3"/>
      <stop offset=".5" stop-color="#caa894"/>
      <stop offset=".83" stop-color="#f0a56d"/>
      <stop offset="1" stop-color="#ffa45e"/>
    </linearGradient>
    <linearGradient id="linear-gradient-9" x1="46.57" y1="477.12" x2="199.68" y2="477.12" gradientUnits="userSpaceOnUse">
      <stop offset="0" stop-color="#88cfda"/>
      <stop offset=".04" stop-color="#8dcfd3"/>
      <stop offset=".5" stop-color="#cad994"/>
      <stop offset=".83" stop-color="#f0de6d"/>
      <stop offset="1" stop-color="#ffe15e"/>
    </linearGradient>
    <linearGradient id="linear-gradient-10" x1="354.96" y1="427.48" x2="171.68" y2="188.73" gradientUnits="userSpaceOnUse">
      <stop offset="0" stop-color="#a1baff"/>
      <stop offset=".49" stop-color="#fff"/>
    </linearGradient>
    <linearGradient id="linear-gradient-11" x1="467.07" y1="328.03" x2="431.72" y2="270.36" gradientUnits="userSpaceOnUse">
      <stop offset="0" stop-color="#3d00ba"/>
      <stop offset=".75" stop-color="#ce00ff"/>
    </linearGradient>
    <linearGradient id="linear-gradient-12" x1="213.98" y1="487.28" x2="330.91" y2="487.28" xlink:href="#linear-gradient-11"/>
    <linearGradient id="linear-gradient-13" x1="240.57" y1="375.81" x2="170.47" y2="348.23" xlink:href="#linear-gradient-11"/>
    <linearGradient id="linear-gradient-14" x1="229.43" y1="478.69" x2="181.17" y2="405.43" gradientUnits="userSpaceOnUse">
      <stop offset="0" stop-color="#270036"/>
      <stop offset=".44" stop-color="#4f008b"/>
      <stop offset="1" stop-color="#4c24b1"/>
    </linearGradient>
    <linearGradient id="linear-gradient-15" x1="172.74" y1="418.6" x2="207.22" y2="478.93" xlink:href="#linear-gradient-4"/>
    <linearGradient id="linear-gradient-16" x1="298.83" y1="371" x2="148.87" y2="451.15" gradientUnits="userSpaceOnUse">
      <stop offset="0" stop-color="#7633ff"/>
      <stop offset=".13" stop-color="#6341ff"/>
      <stop offset=".53" stop-color="#2d6bff"/>
      <stop offset=".84" stop-color="#0c86ff"/>
      <stop offset="1" stop-color="#0090ff"/>
    </linearGradient>
    <linearGradient id="linear-gradient-17" x1="144.74" y1="420.05" x2="289.82" y2="420.05" xlink:href="#linear-gradient-11"/>
    <linearGradient id="linear-gradient-18" x1="320.85" y1="160.34" x2="410.61" y2="160.34" xlink:href="#linear-gradient-4"/>
    <linearGradient id="linear-gradient-19" x1="308.07" y1="303.78" x2="352.89" y2="157.83" gradientUnits="userSpaceOnUse">
      <stop offset="0" stop-color="#7633ff"/>
      <stop offset=".11" stop-color="#663fff"/>
      <stop offset=".52" stop-color="#2f6aff"/>
      <stop offset=".83" stop-color="#0c85ff"/>
      <stop offset="1" stop-color="#0090ff"/>
    </linearGradient>
    <linearGradient id="linear-gradient-20" x1="321.44" y1="229.5" x2="348.91" y2="229.5" gradientUnits="userSpaceOnUse">
      <stop offset="0" stop-color="#70b"/>
      <stop offset="1" stop-color="#00008b"/>
      <stop offset="1" stop-color="#000"/>
    </linearGradient>
    <linearGradient id="linear-gradient-21" x1="316.7" y1="171.96" x2="342.96" y2="171.96" xlink:href="#linear-gradient-4"/>
    <linearGradient id="linear-gradient-22" x1="319.42" y1="255.91" x2="345.27" y2="255.91" xlink:href="#linear-gradient-20"/>
    <linearGradient id="linear-gradient-23" x1="270.58" y1="378.78" x2="302.75" y2="378.78" xlink:href="#linear-gradient"/>
    <linearGradient id="linear-gradient-24" x1="333.49" y1="168.17" x2="368.35" y2="168.17" xlink:href="#linear-gradient-10"/>
    <linearGradient id="linear-gradient-25" x1="321.42" y1="229.44" x2="411.92" y2="229.44" xlink:href="#linear-gradient-4"/>
    <linearGradient id="linear-gradient-26" x1="413.79" y1="267.64" x2="448.55" y2="267.64" xlink:href="#linear-gradient-10"/>
    <linearGradient id="linear-gradient-27" x1="410.2" y1="127.68" x2="439.91" y2="127.68" xlink:href="#linear-gradient-10"/>
    <linearGradient id="linear-gradient-28" x1="610.74" y1="53.1" x2="740.74" y2="53.1" gradientUnits="userSpaceOnUse">
      <stop offset="0" stop-color="#a1baff"/>
      <stop offset=".09" stop-color="#abc1ff"/>
      <stop offset=".5" stop-color="#d8e2ff"/>
      <stop offset=".82" stop-color="#f4f7ff"/>
      <stop offset="1" stop-color="#fff"/>
    </linearGradient>
    <linearGradient id="linear-gradient-29" x1="447.51" y1="78.32" x2="540.92" y2="78.32" xlink:href="#linear-gradient-28"/>
  </defs>
  <path class="cls-29" d="m728.81,330.91c-160.78,139.86-45.15,248.44-427.9,219.96C121.71,537.52,32.97,401.32,12.42,276.88-13.06,122.58,84.43,13.05,352.81,13.05c121.07,0,230.3-36.53,306.56,12.65,106.31,68.57,148.53,236.4,69.44,305.2Z"/>
  <rect class="cls-21" x="244.83" y="45.38" width="413.29" height="413.29"/>
  <circle class="cls-16" cx="681.45" cy="150.15" r="5.71"/>
  <g>
    <circle class="cls-16" cx="168.83" cy="109.05" r="5.71"/>
    <g>
      <g class="cls-27">
        <path id="moon" class="cls-28" d="m538.24,106.57c19.52,19.61,51.22,19.69,70.83.18,19.61-19.51,19.69-51.22.18-70.83-19.51-19.61-51.22-19.69-70.83-.18-19.61,19.5-19.69,51.22-.19,70.82Z"/>
      </g>
      <circle class="cls-33" cx="256.74" cy="51.96" r="12.56"/>
      <circle class="cls-11" cx="55.09" cy="178.58" r="9.42"/>
      <circle class="cls-5" cx="420" cy="58.81" r="5.71"/>
      <polygon class="cls-2" points="335.51 55.62 336.72 58.06 339.4 58.45 337.46 60.34 337.92 63.02 335.51 61.76 333.11 63.02 333.57 60.34 331.62 58.45 334.31 58.06 335.51 55.62"/>
      <polygon class="cls-3" points="92.77 117.63 93.97 120.07 96.66 120.46 94.72 122.36 95.18 125.03 92.77 123.77 90.37 125.03 90.83 122.36 88.88 120.46 91.57 120.07 92.77 117.63"/>
      <polygon class="cls-2" points="49.95 263.21 51.16 265.65 53.84 266.04 51.9 267.94 52.36 270.61 49.95 269.35 47.55 270.61 48.01 267.94 46.06 266.04 48.75 265.65 49.95 263.21"/>
      <polygon class="cls-2" points="734.34 213.99 735.55 216.43 738.23 216.82 736.29 218.72 736.75 221.39 734.34 220.13 731.94 221.39 732.4 218.72 730.45 216.82 733.14 216.43 734.34 213.99"/>
      <polygon class="cls-2" points="696.63 83.77 697.83 86.21 700.52 86.6 698.57 88.5 699.03 91.17 696.63 89.91 694.22 91.17 694.68 88.5 692.74 86.6 695.42 86.21 696.63 83.77"/>
    </g>
  </g>
  <g>
    <g>
      <g>
        <polyline class="cls-9" points="301.88 340.64 625.55 177.7 339.06 416.32"/>
        <polygon class="cls-20" points="477.73 274.12 625.55 177.7 447.27 267.8 477.73 274.12"/>
      </g>
      <g>
        <g>
          <path class="cls-34" d="m172.84,513.59c-15.04,11.18-50.63,21.43-50.63,21.43,0,0,2.85-1.63,7.53-3.94,4.68-2.32,8.56-7.22,8.56-7.22,0,0-9.56,5.83-22.85,10.32-13.28,4.49-31.05,7.75-31.05,7.75,0,0,3.61-1.75,9.94-5.89,6.34-4.14,17.23-11.35,17.23-11.35,0,0-27.18,14.89-68.73,17.75-16.26,1.12-42.85,6.94-42.85,6.94,0,0,12.85-11.08,18.96-17.47,9.71-10.14,21-26.45,29.85-36.75,13.18-15.34,40.24-42.32,40.24-42.32l-5.44,2.44c-5.44,2.44-12.02,5.06-12.02,5.06,0,0,27.21-25.94,47.46-33.76,22.82-8.81,53.27-4.79,53.27-4.79,0,0,2.68,13.02,12.64,29.88,10.3,17.42,18.77,24.52,18.77,24.52,0,0-7.85,20.3-30.89,37.42Z"/>
          <path class="cls-23" d="m176.46,498.53c-11.3,8.4-38.05,16.11-38.05,16.11,0,0,2.14-1.22,5.66-2.96,3.52-1.74,6.43-5.43,6.43-5.43,0,0-7.19,4.38-17.17,7.75-9.98,3.37-23.33,5.83-23.33,5.83,0,0,2.71-1.32,7.47-4.43,4.76-3.11,12.95-8.53,12.95-8.53,0,0-20.43,11.19-51.66,13.34-12.22.84-32.2,5.21-32.2,5.21,0,0,9.66-8.33,14.25-13.13,7.3-7.62,15.78-19.87,22.44-27.62,9.91-11.53,30.24-31.8,30.24-31.8l-4.09,1.83c-4.09,1.83-9.04,3.8-9.04,3.8,0,0,20.45-19.49,35.67-25.37,17.15-6.62,40.04-3.6,40.04-3.6,0,0,2.01,9.79,9.5,22.45,7.74,13.1,14.11,18.42,14.11,18.42,0,0-5.9,15.26-23.22,28.13Z"/>
        </g>
        <g>
          <path class="cls-14" d="m193.58,392.47c1.72-2.59,49.7-54.01,108.02-84.18,58.32-30.17,84.75-32.75,84.75-32.75,0,0,14.65,10.34,29.3,37.35,14.65,27.01,18.96,37.92,17.81,41.37-1.15,3.45-58.03,64.93-120.38,90.5-62.34,25.57-69.52,27.01-69.52,27.01,0,0-7.76-.86-16.66-14.36-8.91-13.5-29.59-47.12-31.89-54.59-2.3-7.47-1.44-10.34-1.44-10.34Z"/>
          <path class="cls-13" d="m480.59,272.38c-3.45-4.88-8.04-5.75-35.91-5.46-27.87.29-56.88,9.48-56.88,9.48l.33.54c4.32,3.61,15.92,14.54,27.54,35.95,11.03,20.33,16.19,31.54,17.59,37.31l1.09,1.76,4.88-4.6c4.88-4.6,24.99-34.19,32.46-47.98,7.47-13.79,12.35-22.12,8.91-27.01Z"/>
          <path class="cls-35" d="m245.87,470.9l-31.89,67.23s31.31-12.93,67.8-37.06c36.49-24.13,39.36-27.87,39.36-27.87l9.77-36.77s-58.61,27.01-85.04,34.48Z"/>
          <path class="cls-36" d="m265.12,330.7l-33.61-6.9s-29.59,12.35-54.3,28.44c-24.71,16.09-48.84,34.19-48.84,34.19l67.51,3.45s47.69-48.84,69.24-59.18Z"/>
          <path class="cls-8" d="m226.91,457.4c-8.91-13.5-29.59-47.12-31.89-54.59-.63-2.03-1.01-3.71-1.25-5.1l-17.42,12.85s-1.15,12.64,14.36,36.2c15.51,23.56,23.56,31.6,27.29,31.31,3.73-.29,19.82-8.62,19.82-8.62l-.33-.54c-2.92-2.04-6.64-5.54-10.59-11.53Z"/>
          <path class="cls-6" d="m177.49,418.04l-5.17,3.73s-.57,8.04,11.2,27.58c11.78,19.54,18.96,26.72,22.12,27.01,3.16.29,5.46-2.59,5.46-2.59,0,0-27.58-30.74-33.61-55.73Z"/>
          <path class="cls-15" d="m286.09,375.52l-25.86,8.91s-40.09,22.24-53.15,30.17c-16.38,9.94-64.35,41.66-64.35,41.66l2.01,4.31,118.94-70.96,26.14-10.06-3.73-4.02Z"/>
          <path class="cls-4" d="m144.74,460.56l65.5-30.17s25.16-14.38,33.33-19.54c11.81-7.45,46.25-31.31,46.25-31.31l-27.29,10.34-117.79,70.67Z"/>
        </g>
      </g>
    </g>
    <g>
      <path d="m403.88,132.18l6.32-2.59s1.59.73,3.16,4.31c2.01,4.6,2.3,7.76,2.3,7.76l-6.32,3.45s-3.16-8.62-5.46-12.93Z"/>
      <path class="cls-7" d="m345.85,189.07l64.64-39.07s.77-6.13-1.53-11.49c-2.3-5.36-4.98-6.9-4.98-6.9l-83.12,37.64"/>
      <path class="cls-32" d="m316.64,169.05s-12.45,13.69-15.32,28.63c-2.87,14.94-2.59,39.93-3.45,48.27s-5.17,23.85-7.76,31.03c-2.59,7.18-3.45,17.24-3.45,17.24,0,0,18.1,2.01,38.21-.29s27.29-4.88,27.29-4.88c0,0-1.15-23.56-3.26-31.22-2.11-7.66-2.68-10.34-2.68-10.34,0,0,.77-2.87,2.68-8.04s11.49-23.56,9.96-30.64c-1.53-7.09-5.36-17.43-8.62-20.88-3.26-3.45-4.6-4.02-4.6-4.02,0,0-7.47-10.73-12.64-15.71-5.17-4.98-11.49-4.41-11.49-4.41l-4.88,5.27Z"/>
      <path class="cls-12" d="m321.44,214.75s3.35,9.77,8.91,16.28c5.55,6.51,16.95,13.22,16.95,13.22l1.62-4.8-26.71-24.69"/>
      <path class="cls-17" d="m342.96,180.16c-2.64-3.58-6.74-8.88-9.95-11.97-5.17-4.98-11.49-4.41-11.49-4.41l-4.82,5.2c3.46,2.12,12,3.69,17.46,6.87,3.32,1.93,6.36,3.33,8.8,4.31Z"/>
      <path class="cls-24" d="m319.99,255.53s6.13-.19,14.94-2.3c8.81-2.11,10.34-3.45,10.34-3.45l-1.92,7.85s-4.41,3.06-10.73,3.64-13.22.77-13.22.77l.57-6.51Z"/>
      <path d="m292.41,294.6s1.72,9.19,7.66,12.64c5.94,3.45,11.68,6.13,11.68,6.13l27.2,20.69-43.09,17.43s5.55,13.02,10.15,19.54c4.6,6.51,7.85,9.58,7.85,9s27.2-13.22,41.75-18.77c14.56-5.55,21.83-8.81,24.52-14.36,2.68-5.55-3.06-11.87-5.75-16.85-2.68-4.98-20.88-30.64-24.13-34.28-3.26-3.64-5.94-4.79-5.94-4.79,0,0-29.88,5.75-51.9,3.64Z"/>
      <path class="cls-31" d="m295.86,351.48l-11.68-.19-13.6,6.13,5.75,13.41,2.68-1.72s1.34,12.83,5.17,21.45c3.83,8.62,12.26,15.9,14.17,15.71,1.92-.19,3.45-3.26,3.45-3.26,0,0-6.7-11.3-5.36-17.62,1.34-6.32,4.21-16.47,4.21-16.47l2.11-2.3s-6.51-11.87-6.9-15.13Z"/>
      <path class="cls-2" d="m295.86,351.48l-8.82-.14c.44,2.17,1.24,5.53,2.12,6.66,1.2,1.55,8.26,4.02,11.91,10.46l1.69-1.84s-6.51-11.87-6.9-15.13Z"/>
      <path d="m298.35,406.26c.52-.05,1.01-.32,1.45-.67-3.67-2.41-7.53-6.91-11.22-11.78-5.36-7.09-5.75-21.64-6.51-24.71-.64-2.55-4.59-11.33-5.9-14.21l-5.59,2.52,5.75,13.41,2.68-1.72s1.34,12.83,5.17,21.45c3.83,8.62,12.26,15.9,14.17,15.71Z"/>
      <path d="m329.61,164.36s-.57-4.88-.86-6.9c-.29-2.01.86-12.35,6.46-16.52s15.37-4.6,21.26-1.72,11.2,6.18,12.35,8.19,1.72,5.75,1.29,6.9-1.15,1.15-1.15,1.15l-6.03-5.03s-4.45,4.6-4.6,5.75-1.58,7.61-1.58,7.61c0,0-2.73-.14-2.73-.57s-2.73-8.04-4.74-7.76-4.69-.29-5.89,4.31c-.34,1.32-1.01,4.6-1.01,4.6l-8.91,3.59-3.88-3.59Z"/>
      <path class="cls-22" d="m362.94,150.43s-4.45,4.6-4.6,5.75-1.58,7.61-1.58,7.61c0,0-2.73-.14-2.73-.57s-2.73-8.04-4.74-7.76-4.69-.29-5.89,4.31c-.34,1.32-1.01,4.6-1.01,4.6l-8.91,3.59,11.78,15.85,2.3-.96s9.38,3.16,10.25,3.06,1.82-4.12,1.82-4.5,1.63-.77,2.3-.96c.67-.19-.19-1.63-.19-1.63l1.63-.29.57-3.45s1.24.57,1.63.57,1.92-.67,1.92-.67l-1.53-10.92,1.72-1.63.67-7.28-.17-.38-5.24-4.36Z"/>
      <path class="cls-18" d="m321.52,213.77s2.49,9.19,24.9,24.32c22.41,15.13,37.35,24.13,42.52,27.01s13.02,9.96,13.02,9.96c0,0,4.41-4.98,6.9-9.58,2.49-4.6,3.06-6.9,3.06-6.9,0,0-27.58-18.96-35.82-25.47-8.24-6.51-19.34-19.73-20.49-22.41s-1.34-20.49-9.58-25.09c-8.24-4.6-17.43,0-21.45,9.77-4.02,9.77-3.06,18.39-3.06,18.39Z"/>
      <path d="m404.6,271.38l6.9,2.87s2.73-2.44,4.17-6.61,2.01-6.03,2.01-6.03l-5.75-3.02s-4.74,10.63-7.33,12.78Z"/>
      <path class="cls-37" d="m417.67,262.76s9.77-1.15,12.21-1.15,7.18,1.44,11.35,3.3c4.17,1.87,7.33,4.74,7.33,5.46s-.72,1.87-3.02,1.44-11.64-2.44-13.22-2.3-9.19,4.17-11.64,4.17-6.9-1.72-6.9-1.72c0,0,3.88-7.04,3.88-9.19Z"/>
      <path class="cls-30" d="m410.2,129.6s4.6-2.2,7.09-3.54c2.49-1.34,8.04-4.21,12.26-5.94,4.21-1.72,9.77-4.79,10.34-3.26s-10.92,8.24-10.92,8.24c0,0,3.83,4.6,3.83,5.36s-4.02,7.47-4.02,7.47c0,0-3.15,1.14-4.21.96-1.06-.18-3.64-2.3-3.64-2.3l-5.75,1.72s-3.06-7.09-4.98-8.71Z"/>
    </g>
  </g>
  <g>
    <circle class="cls-2" cx="224.09" cy="96.11" r="1.98"/>
    <path class="cls-2" d="m295.94,155.49c0,.54-.44.98-.98.98s-.98-.44-.98-.98.44-.98.98-.98.98.44.98.98Z"/>
    <path class="cls-2" d="m179.57,172.22c0,1.48-1.2,2.67-2.67,2.67s-2.67-1.2-2.67-2.67,1.2-2.67,2.67-2.67,2.67,1.2,2.67,2.67Z"/>
    <path class="cls-2" d="m107.77,159.78c0,1.14-.92,2.06-2.05,2.06s-2.06-.92-2.06-2.06.92-2.06,2.06-2.06,2.05.92,2.05,2.06Z"/>
    <path class="cls-2" d="m287.28,101.35c0,1.03-.84,1.87-1.87,1.87s-1.87-.84-1.87-1.87.84-1.87,1.87-1.87,1.87.84,1.87,1.87Z"/>
  </g>
  <g>
    <circle class="cls-2" cx="643.41" cy="80.78" r="2.45"/>
    <path class="cls-2" d="m732.42,154.34c0,.67-.54,1.21-1.21,1.21s-1.21-.54-1.21-1.21.54-1.21,1.21-1.21,1.21.54,1.21,1.21Z"/>
    <path class="cls-2" d="m588.26,175.06c0,1.83-1.48,3.31-3.31,3.31s-3.31-1.48-3.31-3.31,1.48-3.31,3.31-3.31,3.31,1.48,3.31,3.31Z"/>
    <path class="cls-2" d="m499.31,159.65c0,1.41-1.14,2.55-2.55,2.55s-2.55-1.14-2.55-2.55,1.14-2.55,2.55-2.55,2.55,1.14,2.55,2.55Z"/>
    <path class="cls-2" d="m721.68,87.27c0,1.28-1.04,2.32-2.32,2.32s-2.32-1.04-2.32-2.32,1.04-2.32,2.32-2.32,2.32,1.04,2.32,2.32Z"/>
  </g>
  <g>
    <circle class="cls-2" cx="536.37" cy="375.53" r="2.45"/>
    <path class="cls-2" d="m625.38,449.09c0,.67-.54,1.21-1.21,1.21s-1.21-.54-1.21-1.21.54-1.21,1.21-1.21,1.21.54,1.21,1.21Z"/>
    <path class="cls-2" d="m481.21,469.8c0,1.83-1.48,3.31-3.31,3.31s-3.31-1.48-3.31-3.31,1.48-3.31,3.31-3.31,3.31,1.48,3.31,3.31Z"/>
    <path class="cls-2" d="m392.26,454.4c0,1.41-1.14,2.55-2.55,2.55s-2.55-1.14-2.55-2.55,1.14-2.55,2.55-2.55,2.55,1.14,2.55,2.55Z"/>
    <path class="cls-2" d="m614.64,382.02c0,1.28-1.04,2.32-2.32,2.32s-2.32-1.04-2.32-2.32,1.04-2.32,2.32-2.32,2.32,1.04,2.32,2.32Z"/>
  </g>
  <g>
    <circle class="cls-2" cx="436.36" cy="488.96" r="1.33"/>
    <path class="cls-2" d="m484.76,528.96c0,.36-.29.66-.66.66s-.66-.29-.66-.66.29-.66.66-.66.66.29.66.66Z"/>
    <path class="cls-2" d="m406.37,540.22c0,1-.81,1.8-1.8,1.8s-1.8-.81-1.8-1.8.81-1.8,1.8-1.8,1.8.81,1.8,1.8Z"/>
    <path class="cls-2" d="m358.01,531.85c0,.76-.62,1.38-1.38,1.38s-1.38-.62-1.38-1.38.62-1.38,1.38-1.38,1.38.62,1.38,1.38Z"/>
    <path class="cls-2" d="m478.92,492.49c0,.7-.56,1.26-1.26,1.26s-1.26-.56-1.26-1.26.56-1.26,1.26-1.26,1.26.56,1.26,1.26Z"/>
  </g>
  <g>
    <circle class="cls-2" cx="152.77" cy="270.11" r="1.33"/>
    <path class="cls-2" d="m201.16,310.11c0,.36-.29.66-.66.66s-.66-.29-.66-.66.29-.66.66-.66.66.29.66.66Z"/>
    <path class="cls-2" d="m122.78,321.38c0,1-.81,1.8-1.8,1.8s-1.8-.81-1.8-1.8.81-1.8,1.8-1.8,1.8.81,1.8,1.8Z"/>
    <path class="cls-2" d="m74.41,313c0,.76-.62,1.38-1.38,1.38s-1.38-.62-1.38-1.38.62-1.38,1.38-1.38,1.38.62,1.38,1.38Z"/>
    <path class="cls-2" d="m195.33,273.64c0,.7-.56,1.26-1.26,1.26s-1.26-.56-1.26-1.26.56-1.26,1.26-1.26,1.26.56,1.26,1.26Z"/>
  </g>
  <g>
    <circle class="cls-2" cx="656.3" cy="239.54" r="1.33"/>
    <path class="cls-2" d="m704.69,279.54c0,.36-.29.66-.66.66s-.66-.29-.66-.66.29-.66.66-.66.66.29.66.66Z"/>
    <path class="cls-2" d="m626.31,290.8c0,1-.81,1.8-1.8,1.8s-1.8-.81-1.8-1.8.81-1.8,1.8-1.8,1.8.81,1.8,1.8Z"/>
    <path class="cls-2" d="m577.94,282.43c0,.76-.62,1.38-1.38,1.38s-1.38-.62-1.38-1.38.62-1.38,1.38-1.38,1.38.62,1.38,1.38Z"/>
    <path class="cls-2" d="m698.86,243.07c0,.7-.56,1.26-1.26,1.26s-1.26-.56-1.26-1.26.56-1.26,1.26-1.26,1.26.56,1.26,1.26Z"/>
  </g>
  <g>
    <circle class="cls-2" cx="510.58" cy="151.35" r="1.33"/>
    <path class="cls-2" d="m558.97,191.35c0,.36-.29.66-.66.66s-.66-.29-.66-.66.29-.66.66-.66.66.29.66.66Z"/>
    <path class="cls-2" d="m480.59,202.61c0,1-.81,1.8-1.8,1.8s-1.8-.81-1.8-1.8.81-1.8,1.8-1.8,1.8.81,1.8,1.8Z"/>
    <path class="cls-2" d="m432.22,194.24c0,.76-.62,1.38-1.38,1.38s-1.38-.62-1.38-1.38.62-1.38,1.38-1.38,1.38.62,1.38,1.38Z"/>
    <path class="cls-2" d="m553.14,154.88c0,.7-.56,1.26-1.26,1.26s-1.26-.56-1.26-1.26.56-1.26,1.26-1.26,1.26.56,1.26,1.26Z"/>
  </g>
  <path class="cls-10" d="m631.27,48.53c3.83,0,7.41,1.05,10.48,2.88.73-10.68,9.62-19.11,20.48-19.11,2.65,0,5.18.51,7.5,1.42,2.96-9.9,12.13-17.12,22.99-17.12,13.26,0,24,10.75,24,24,0,.34-.01.68-.03,1.01,0,0,.02,0,.03,0,13.25,0,24,10.75,24,24s-10.75,24-24,24c-.83,0-1.65-.04-2.45-.12h-80.77c-.74.08-1.48.12-2.24.12-11.34,0-20.54-9.2-20.54-20.54s9.2-20.54,20.54-20.54Z"/>
  <path class="cls-1" d="m529.16,75.72c-2.19,0-4.25.6-6,1.65-.42-6.12-5.51-10.95-11.73-10.95-1.34,0-2.63.24-3.83.66-1.73-5.6-6.96-9.68-13.13-9.68-.46,0-.92.03-1.37.07-5.77.36-10.57,4.27-12.24,9.58-1.21-.42-2.5-.66-3.85-.66-6.22,0-11.31,4.83-11.73,10.95-1.76-1.05-3.81-1.65-6-1.65-6.5,0-11.76,5.27-11.76,11.76s5.27,11.76,11.76,11.76c.43,0,.86-.03,1.28-.07h18.06c.53.06,1.06.1,1.61.1.47,0,.94-.02,1.4-.07h25.79c.26.01.52.04.79.04s.53-.03.79-.04h18.88c.42.05.85.07,1.28.07,6.5,0,11.76-5.27,11.76-11.76s-5.27-11.76-11.76-11.76Z"/>
</svg>